<?xml version="1.0" encoding="UTF-8"?>
<!DOCTYPE svg PUBLIC "-//W3C//DTD SVG 1.1//EN" "http://www.w3.org/Graphics/SVG/1.1/DTD/svg11.dtd">
<svg xmlns="http://www.w3.org/2000/svg" version="1.1" width="331px" height="167px" style="shape-rendering:geometricPrecision; text-rendering:geometricPrecision; image-rendering:optimizeQuality; fill-rule:evenodd; clip-rule:evenodd" xmlns:xlink="http://www.w3.org/1999/xlink">
<g><path style="opacity:1" fill="#151311" d="M 162.5,11.5 C 163.043,11.56 163.376,11.8933 163.5,12.5C 161.668,13.0568 160.335,14.0568 159.5,15.5C 157.62,15.2291 156.287,15.8958 155.5,17.5C 155.167,17.5 154.833,17.5 154.5,17.5C 152.847,17.6596 151.514,18.3263 150.5,19.5C 149.833,19.5 149.167,19.5 148.5,19.5C 146.62,19.2291 145.287,19.8958 144.5,21.5C 144.167,21.5 143.833,21.5 143.5,21.5C 141.847,21.6596 140.514,22.3263 139.5,23.5C 139.167,23.5 138.833,23.5 138.5,23.5C 136.447,23.4021 134.78,24.0687 133.5,25.5C 133.167,25.5 132.833,25.5 132.5,25.5C 130.597,25.7959 128.93,26.4625 127.5,27.5C 125.62,27.2291 124.287,27.8958 123.5,29.5C 121.299,30.5664 118.965,31.233 116.5,31.5C 114.847,31.6596 113.514,32.3263 112.5,33.5C 112.167,33.5 111.833,33.5 111.5,33.5C 109.447,33.4021 107.78,34.0687 106.5,35.5C 104.447,35.4021 102.78,36.0687 101.5,37.5C 101.167,37.5 100.833,37.5 100.5,37.5C 98.4471,37.4021 96.7804,38.0687 95.5,39.5C 93.4471,39.4021 91.7804,40.0687 90.5,41.5C 88.4471,41.4021 86.7804,42.0687 85.5,43.5C 85.1667,43.5 84.8333,43.5 84.5,43.5C 84.1667,43.5 83.8333,43.5 83.5,43.5C 83.6716,42.5084 83.3382,41.8417 82.5,41.5C 108.86,30.9322 135.526,20.9322 162.5,11.5 Z"/></g>
<g><path style="opacity:0.122" fill="#aaa97c" d="M 159.5,15.5 C 158.713,17.1042 157.38,17.7709 155.5,17.5C 156.287,15.8958 157.62,15.2291 159.5,15.5 Z"/></g>
<g><path style="opacity:0.133" fill="#d2cf9c" d="M 154.5,17.5 C 153.713,19.1042 152.38,19.7709 150.5,19.5C 151.514,18.3263 152.847,17.6596 154.5,17.5 Z"/></g>
<g><path style="opacity:0.176" fill="#979c72" d="M 148.5,19.5 C 147.713,21.1042 146.38,21.7709 144.5,21.5C 145.287,19.8958 146.62,19.2291 148.5,19.5 Z"/></g>
<g><path style="opacity:0.78" fill="#918d58" d="M 166.5,20.5 C 163.14,20.6159 159.807,20.9492 156.5,21.5C 159.708,19.4686 163.041,19.1353 166.5,20.5 Z"/></g>
<g><path style="opacity:0.086" fill="#d2cd9e" d="M 177.5,19.5 C 179.153,19.6596 180.486,20.3263 181.5,21.5C 179.62,21.7709 178.287,21.1042 177.5,19.5 Z"/></g>
<g><path style="opacity:1" fill="#202017" d="M 162.5,11.5 C 162.56,10.9569 162.893,10.6236 163.5,10.5C 175.266,15.1936 186.933,19.8602 198.5,24.5C 197.081,25.4511 195.415,25.7845 193.5,25.5C 193.167,25.5 192.833,25.5 192.5,25.5C 191.486,24.3263 190.153,23.6596 188.5,23.5C 187.833,23.5 187.167,23.5 186.5,23.5C 186.027,22.0937 185.027,21.427 183.5,21.5C 182.833,21.5 182.167,21.5 181.5,21.5C 180.486,20.3263 179.153,19.6596 177.5,19.5C 171.727,17.1307 165.727,15.7974 159.5,15.5C 160.335,14.0568 161.668,13.0568 163.5,12.5C 163.376,11.8933 163.043,11.56 162.5,11.5 Z"/></g>
<g><path style="opacity:0.122" fill="#c0c790" d="M 143.5,21.5 C 142.713,23.1042 141.38,23.7709 139.5,23.5C 140.514,22.3263 141.847,21.6596 143.5,21.5 Z"/></g>
<g><path style="opacity:0.306" fill="#b8b18d" d="M 183.5,21.5 C 185.027,21.427 186.027,22.0937 186.5,23.5C 184.973,23.573 183.973,22.9063 183.5,21.5 Z"/></g>
<g><path style="opacity:1" fill="#515136" d="M 166.5,20.5 C 167.793,22.3635 167.793,24.3635 166.5,26.5C 162.531,27.3296 158.531,27.9963 154.5,28.5C 154.5,42.8333 154.5,57.1667 154.5,71.5C 153.504,57.6766 153.171,43.6766 153.5,29.5C 152.248,27.6612 152.248,25.8278 153.5,24C 152.181,23.805 150.847,23.9717 149.5,24.5C 149.5,24.1667 149.5,23.8333 149.5,23.5C 151.701,22.4336 154.035,21.767 156.5,21.5C 159.807,20.9492 163.14,20.6159 166.5,20.5 Z"/></g>
<g><path style="opacity:0.012" fill="#bdc387" d="M 138.5,23.5 C 137.365,25.2132 135.698,25.8799 133.5,25.5C 134.78,24.0687 136.447,23.4021 138.5,23.5 Z"/></g>
<g><path style="opacity:0.141" fill="#c2b98f" d="M 188.5,23.5 C 190.153,23.6596 191.486,24.3263 192.5,25.5C 190.62,25.7709 189.287,25.1042 188.5,23.5 Z"/></g>
<g><path style="opacity:0.067" fill="#b3b182" d="M 132.5,25.5 C 131.365,27.2132 129.698,27.8799 127.5,27.5C 128.93,26.4625 130.597,25.7959 132.5,25.5 Z"/></g>
<g><path style="opacity:1" fill="#202018" d="M 198.5,24.5 C 213.087,29.3873 227.42,34.7207 241.5,40.5C 240.081,41.4511 238.415,41.7845 236.5,41.5C 234.898,39.9261 232.898,39.2594 230.5,39.5C 226.438,38.3682 222.438,37.0349 218.5,35.5C 218.027,34.0937 217.027,33.427 215.5,33.5C 211.053,32.5733 206.719,31.24 202.5,29.5C 202.027,28.0937 201.027,27.427 199.5,27.5C 197.102,27.7406 195.102,27.0739 193.5,25.5C 195.415,25.7845 197.081,25.4511 198.5,24.5 Z"/></g>
<g><path style="opacity:0.055" fill="#b8b884" d="M 127.5,27.5 C 126.713,29.1042 125.38,29.7709 123.5,29.5C 124.287,27.8958 125.62,27.2291 127.5,27.5 Z"/></g>
<g><path style="opacity:0.188" fill="#c2c47c" d="M 176.5,23.5 C 175.5,23.5 174.5,23.5 173.5,23.5C 173.5,33.5 173.5,43.5 173.5,53.5C 173.5,64.8333 173.5,76.1667 173.5,87.5C 172.851,101.873 173.518,115.873 175.5,129.5C 174.791,130.404 173.791,130.737 172.5,130.5C 172.5,94.5 172.5,58.5 172.5,22.5C 174.099,22.2322 175.432,22.5655 176.5,23.5 Z"/></g>
<g><path style="opacity:0.133" fill="#b7b580" d="M 199.5,27.5 C 201.027,27.427 202.027,28.0937 202.5,29.5C 200.973,29.573 199.973,28.9063 199.5,27.5 Z"/></g>
<g><path style="opacity:0.804" fill="#8b7e5c" d="M 135.5,30.5 C 134.167,30.5 132.833,30.5 131.5,30.5C 132.531,29.7515 133.698,29.0848 135,28.5C 135.464,29.0944 135.631,29.7611 135.5,30.5 Z"/></g>
<g><path style="opacity:0.11" fill="#bac089" d="M 116.5,31.5 C 115.713,33.1042 114.38,33.7709 112.5,33.5C 113.514,32.3263 114.847,31.6596 116.5,31.5 Z"/></g>
<g><path style="opacity:1" fill="#171814" d="M 176.5,23.5 C 177.75,23.5774 178.583,24.244 179,25.5C 179.61,28.8273 180.11,32.1606 180.5,35.5C 179.442,34.3998 178.608,33.0664 178,31.5C 176.726,34.367 175.893,37.367 175.5,40.5C 176.387,44.15 177.053,47.8166 177.5,51.5C 175.938,51.7329 174.605,52.3995 173.5,53.5C 173.5,43.5 173.5,33.5 173.5,23.5C 174.5,23.5 175.5,23.5 176.5,23.5 Z"/></g>
<g><path style="opacity:0.298" fill="#999c68" d="M 111.5,33.5 C 110.22,34.9313 108.553,35.5979 106.5,35.5C 107.78,34.0687 109.447,33.4021 111.5,33.5 Z"/></g>
<g><path style="opacity:0.165" fill="#bcb287" d="M 215.5,33.5 C 217.027,33.427 218.027,34.0937 218.5,35.5C 216.973,35.573 215.973,34.9063 215.5,33.5 Z"/></g>
<g><path style="opacity:1" fill="#2a2a20" d="M 153.5,29.5 C 153.171,43.6766 153.504,57.6766 154.5,71.5C 158.167,71.5 161.833,71.5 165.5,71.5C 165.5,73.5 165.5,75.5 165.5,77.5C 161.298,77.1832 157.298,77.5166 153.5,78.5C 154.833,92.8333 154.833,107.167 153.5,121.5C 152.833,105.5 152.167,89.5 151.5,73.5C 151.5,72.8333 151.5,72.1667 151.5,71.5C 151.819,66.354 151.153,61.354 149.5,56.5C 150.298,49.5496 150.798,42.5496 151,35.5C 151.333,42.1667 151.667,48.8333 152,55.5C 152.17,46.657 152.67,37.9903 153.5,29.5 Z"/></g>
<g><path style="opacity:0.031" fill="#c0c192" d="M 209.5,35.5 C 211.698,35.1201 213.365,35.7868 214.5,37.5C 212.447,37.5979 210.78,36.9313 209.5,35.5 Z"/></g>
<g><path style="opacity:0.012" fill="#c4cc91" d="M 106.5,35.5 C 105.365,37.2132 103.698,37.8799 101.5,37.5C 102.78,36.0687 104.447,35.4021 106.5,35.5 Z"/></g>
<g><path style="opacity:0.804" fill="#7f7f4f" d="M 208.5,35.5 C 206.883,34.962 205.216,34.6287 203.5,34.5C 203.325,36.6208 203.659,38.6208 204.5,40.5C 203.504,40.5858 202.671,40.2524 202,39.5C 202.497,37.8016 202.33,36.1349 201.5,34.5C 202.5,34.1667 203.5,33.8333 204.5,33.5C 206.355,33.3402 207.688,34.0069 208.5,35.5 Z"/></g>
<g><path style="opacity:0.627" fill="#726d5d" d="M 149.5,23.5 C 149.5,23.8333 149.5,24.1667 149.5,24.5C 148.504,39.9911 148.17,55.6578 148.5,71.5C 148.5,88.1667 148.5,104.833 148.5,121.5C 148.5,122.833 148.5,124.167 148.5,125.5C 148.433,126.959 148.766,128.292 149.5,129.5C 148.167,112.18 147.5,94.5129 147.5,76.5C 147.5,58.4871 148.167,40.8205 149.5,23.5 Z"/></g>
<g><path style="opacity:1" fill="#0a0907" d="M 153.5,29.5 C 152.67,37.9903 152.17,46.657 152,55.5C 151.667,48.8333 151.333,42.1667 151,35.5C 150.798,42.5496 150.298,49.5496 149.5,56.5C 151.153,61.354 151.819,66.354 151.5,71.5C 150.5,71.5 149.5,71.5 148.5,71.5C 148.17,55.6578 148.504,39.9911 149.5,24.5C 150.847,23.9717 152.181,23.805 153.5,24C 152.248,25.8278 152.248,27.6612 153.5,29.5 Z"/></g>
<g><path style="opacity:1" fill="#0c0b01" d="M 192.5,29.5 C 192.833,29.5 193.167,29.5 193.5,29.5C 194.172,30.2674 195.005,30.9341 196,31.5C 196.5,50.1637 196.667,68.8304 196.5,87.5C 195.566,86.4324 195.232,85.099 195.5,83.5C 195.833,66.82 195.499,50.1533 194.5,33.5C 193.501,49.4861 193.167,65.4861 193.5,81.5C 193.5,87.1667 193.5,92.8333 193.5,98.5C 193.167,98.5 192.833,98.5 192.5,98.5C 192.5,75.5 192.5,52.5 192.5,29.5 Z"/></g>
<g><path style="opacity:0.373" fill="#8b8962" d="M 100.5,37.5 C 99.2196,38.9313 97.5529,39.5979 95.5,39.5C 96.7804,38.0687 98.4471,37.4021 100.5,37.5 Z"/></g>
<g><path style="opacity:1" fill="#0b0b0e" d="M 131.5,30.5 C 132.833,30.5 134.167,30.5 135.5,30.5C 135.5,30.8333 135.5,31.1667 135.5,31.5C 135.5,34.8333 135.5,38.1667 135.5,41.5C 135.985,57.1896 134.652,57.1896 131.5,41.5C 131.79,37.9935 131.79,34.3269 131.5,30.5 Z"/></g>
<g><path style="opacity:1" fill="#151614" d="M 180.5,35.5 C 181.473,37.9479 181.806,40.6146 181.5,43.5C 181.401,46.2372 181.735,48.9039 182.5,51.5C 182.628,53.6547 182.128,55.6547 181,57.5C 180.316,56.2161 180.483,55.0495 181.5,54C 180.906,53.5357 180.239,53.369 179.5,53.5C 179.869,51.0065 179.203,50.3398 177.5,51.5C 177.053,47.8166 176.387,44.15 175.5,40.5C 175.893,37.367 176.726,34.367 178,31.5C 178.608,33.0664 179.442,34.3998 180.5,35.5 Z"/></g>
<g><path style="opacity:0.055" fill="#c7cc96" d="M 220.5,39.5 C 222.781,39.0773 224.448,39.744 225.5,41.5C 223.447,41.5979 221.78,40.9313 220.5,39.5 Z"/></g>
<g><path style="opacity:0.231" fill="#a89e77" d="M 95.5,39.5 C 94.2196,40.9313 92.5529,41.5979 90.5,41.5C 91.7804,40.0687 93.4471,39.4021 95.5,39.5 Z"/></g>
<g><path style="opacity:0.714" fill="#9c9c5f" d="M 135.5,31.5 C 136.924,34.7124 137.257,38.0457 136.5,41.5C 136.167,41.5 135.833,41.5 135.5,41.5C 135.5,38.1667 135.5,34.8333 135.5,31.5 Z"/></g>
<g><path style="opacity:0.835" fill="#7a745c" d="M 230.5,39.5 C 232.898,39.2594 234.898,39.9261 236.5,41.5C 234.102,41.7406 232.102,41.0739 230.5,39.5 Z"/></g>
<g><path style="opacity:1" fill="#16160f" d="M 208.5,35.5 C 208.833,35.5 209.167,35.5 209.5,35.5C 210.78,36.9313 212.447,37.5979 214.5,37.5C 216.703,37.6036 218.703,38.2702 220.5,39.5C 221.78,40.9313 223.447,41.5979 225.5,41.5C 225.5,42.8333 225.5,44.1667 225.5,45.5C 222.342,44.1242 219.009,43.4576 215.5,43.5C 215.5,46.1667 215.5,48.8333 215.5,51.5C 214.539,49.7354 214.205,47.7354 214.5,45.5C 213.5,45.5 212.5,45.5 211.5,45.5C 211.5,44.1667 211.5,42.8333 211.5,41.5C 210.5,41.5 209.5,41.5 208.5,41.5C 206.901,41.7678 205.568,41.4345 204.5,40.5C 203.659,38.6208 203.325,36.6208 203.5,34.5C 205.216,34.6287 206.883,34.962 208.5,35.5 Z"/></g>
<g><path style="opacity:0.067" fill="#baba83" d="M 90.5,41.5 C 89.2196,42.9313 87.5529,43.5979 85.5,43.5C 86.7804,42.0687 88.4471,41.4021 90.5,41.5 Z"/></g>
<g><path style="opacity:1" fill="#2c2a20" d="M 241.5,40.5 C 247.79,42.3204 253.79,44.6537 259.5,47.5C 258.957,47.56 258.624,47.8933 258.5,48.5C 259.993,49.1411 260.993,50.1411 261.5,51.5C 252.789,48.9156 244.456,45.5823 236.5,41.5C 238.415,41.7845 240.081,41.4511 241.5,40.5 Z"/></g>
<g><path style="opacity:0.329" fill="#979362" d="M 83.5,43.5 C 83.8333,43.5 84.1667,43.5 84.5,43.5C 83.2196,44.9313 81.5529,45.5979 79.5,45.5C 80.5137,44.3263 81.847,43.6596 83.5,43.5 Z"/></g>
<g><path style="opacity:0.012" fill="#e1e0a9" d="M 89.5,45.5 C 88.7095,46.4013 87.7095,47.0679 86.5,47.5C 86.8212,45.9519 87.8212,45.2852 89.5,45.5 Z"/></g>
<g><path style="opacity:1" fill="#353526" d="M 131.5,30.5 C 131.79,34.3269 131.79,37.9935 131.5,41.5C 134.652,57.1896 135.985,57.1896 135.5,41.5C 135.833,41.5 136.167,41.5 136.5,41.5C 137.229,46.1304 137.563,50.7971 137.5,55.5C 135.726,56.3696 134.393,57.703 133.5,59.5C 133.649,58.448 133.483,57.448 133,56.5C 132.667,56.8333 132.333,57.1667 132,57.5C 131.681,65.7021 130.848,73.7021 129.5,81.5C 129.828,76.1254 129.495,70.7921 128.5,65.5C 127.831,67.6309 127.165,69.6309 126.5,71.5C 127.468,58.822 128.634,46.1553 130,33.5C 130.232,32.2625 130.732,31.2625 131.5,30.5 Z"/></g>
<g><path style="opacity:0.427" fill="#9e9f73" d="M 242.5,47.5 C 239.5,46.1667 236.5,46.1667 233.5,47.5C 234.492,45.9735 235.992,45.3068 238,45.5C 240.008,45.3068 241.508,45.9735 242.5,47.5 Z"/></g>
<g><path style="opacity:0.208" fill="#a8a67d" d="M 79.5,45.5 C 78.2196,46.9313 76.5529,47.5979 74.5,47.5C 75.7804,46.0687 77.4471,45.4021 79.5,45.5 Z"/></g>
<g><path style="opacity:0.945" fill="#5e5d3b" d="M 97.5,43.5 C 97.56,42.9569 97.8933,42.6236 98.5,42.5C 101.032,45.2825 100.699,47.6158 97.5,49.5C 98.7416,47.3888 98.7416,45.3888 97.5,43.5 Z"/></g>
<g><path style="opacity:1" fill="#1d1c13" d="M 97.5,43.5 C 98.7416,45.3888 98.7416,47.3888 97.5,49.5C 97.1667,49.5 96.8333,49.5 96.5,49.5C 94.4471,49.4021 92.7804,50.0687 91.5,51.5C 90.609,52.1098 89.609,52.4431 88.5,52.5C 86.9519,52.8212 86.2852,53.8212 86.5,55.5C 86.5,60.8333 86.5,66.1667 86.5,71.5C 86.5,71.8333 86.5,72.1667 86.5,72.5C 86.1667,72.5 85.8333,72.5 85.5,72.5C 85.8297,66.1318 85.4963,59.7985 84.5,53.5C 83.5832,52.8728 82.5832,52.5394 81.5,52.5C 81.5,51.5 81.5,50.5 81.5,49.5C 83.0269,49.573 84.0269,48.9063 84.5,47.5C 85.1667,47.5 85.8333,47.5 86.5,47.5C 87.7095,47.0679 88.7095,46.4013 89.5,45.5C 92.006,44.2504 94.6726,43.5838 97.5,43.5 Z"/></g>
<g><path style="opacity:0.031" fill="#c9d298" d="M 73.5,47.5 C 72.8166,49.1765 71.4832,49.8432 69.5,49.5C 70.5137,48.3263 71.847,47.6596 73.5,47.5 Z"/></g>
<g><path style="opacity:1" fill="#918d6a" d="M 84.5,47.5 C 84.0269,48.9063 83.0269,49.573 81.5,49.5C 81.8212,47.9519 82.8212,47.2852 84.5,47.5 Z"/></g>
<g><path style="opacity:0.086" fill="#bab57f" d="M 243.5,47.5 C 245.027,47.427 246.027,48.0937 246.5,49.5C 244.973,49.573 243.973,48.9063 243.5,47.5 Z"/></g>
<g><path style="opacity:1" fill="#28271d" d="M 119.5,71.5 C 119.255,77.084 119.922,82.4174 121.5,87.5C 121.5,89.1667 121.5,90.8333 121.5,92.5C 119.744,93.5521 119.077,95.2188 119.5,97.5C 118.833,94.5 118.167,91.5 117.5,88.5C 116.244,81.6037 115.577,74.6037 115.5,67.5C 115.721,64.7212 115.388,62.0545 114.5,59.5C 114.167,56.8333 113.833,56.8333 113.5,59.5C 112.617,64.1031 112.283,68.7697 112.5,73.5C 112.813,77.0419 112.479,80.3752 111.5,83.5C 111.666,76.825 111.5,70.1583 111,63.5C 110.617,64.056 110.117,64.3893 109.5,64.5C 109.5,62.5 109.5,60.5 109.5,58.5C 109.773,51.4964 110.106,44.4964 110.5,37.5C 112.5,37.1667 114.5,36.8333 116.5,36.5C 117.719,48.1381 118.719,59.8048 119.5,71.5 Z"/></g>
<g><path style="opacity:1" fill="#0f0d0e" d="M 242.5,47.5 C 242.833,47.5 243.167,47.5 243.5,47.5C 243.973,48.9063 244.973,49.573 246.5,49.5C 246.5,49.8333 246.5,50.1667 246.5,50.5C 245.365,52.2132 243.698,52.8799 241.5,52.5C 239.545,51.0698 237.879,51.4031 236.5,53.5C 234.833,53.5 233.167,53.5 231.5,53.5C 231.704,51.3146 232.37,49.3146 233.5,47.5C 236.5,46.1667 239.5,46.1667 242.5,47.5 Z"/></g>
<g><path style="opacity:0.043" fill="#d9d8a7" d="M 246.5,50.5 C 246.5,50.1667 246.5,49.8333 246.5,49.5C 247.833,49.5 248.5,50.1667 248.5,51.5C 247.833,51.1667 247.167,50.8333 246.5,50.5 Z"/></g>
<g><path style="opacity:0.275" fill="#9c9a6d" d="M 68.5,49.5 C 67.2196,50.9313 65.5529,51.5979 63.5,51.5C 64.7804,50.0687 66.4471,49.4021 68.5,49.5 Z"/></g>
<g><path style="opacity:0.208" fill="#9fa269" d="M 96.5,49.5 C 95.2196,50.9313 93.5529,51.5979 91.5,51.5C 92.7804,50.0687 94.4471,49.4021 96.5,49.5 Z"/></g>
<g><path style="opacity:0.275" fill="#a4a272" d="M 181.5,43.5 C 182.768,45.9052 183.435,48.5718 183.5,51.5C 183.167,51.5 182.833,51.5 182.5,51.5C 181.735,48.9039 181.401,46.2372 181.5,43.5 Z"/></g>
<g><path style="opacity:0.322" fill="#a3a365" d="M 241.5,52.5 C 239.784,52.6287 238.117,52.962 236.5,53.5C 237.879,51.4031 239.545,51.0698 241.5,52.5 Z"/></g>
<g><path style="opacity:1" fill="#120e0d" d="M 82.5,41.5 C 83.3382,41.8417 83.6716,42.5084 83.5,43.5C 81.847,43.6596 80.5137,44.3263 79.5,45.5C 77.4471,45.4021 75.7804,46.0687 74.5,47.5C 74.1667,47.5 73.8333,47.5 73.5,47.5C 71.847,47.6596 70.5137,48.3263 69.5,49.5C 69.1667,49.5 68.8333,49.5 68.5,49.5C 66.4471,49.4021 64.7804,50.0687 63.5,51.5C 61.4471,51.4021 59.7804,52.0687 58.5,53.5C 58.1667,53.5 57.8333,53.5 57.5,53.5C 57.1667,53.5 56.8333,53.5 56.5,53.5C 54.901,53.7678 53.5676,53.4345 52.5,52.5C 62.2833,48.4588 72.2833,44.7921 82.5,41.5 Z"/></g>
<g><path style="opacity:0.043" fill="#c7c999" d="M 63.5,51.5 C 62.3646,53.2132 60.698,53.8799 58.5,53.5C 59.7804,52.0687 61.4471,51.4021 63.5,51.5 Z"/></g>
<g><path style="opacity:0.031" fill="#e1e1b0" d="M 88.5,52.5 C 88.0679,53.7095 87.4013,54.7095 86.5,55.5C 86.2852,53.8212 86.9519,52.8212 88.5,52.5 Z"/></g>
<g><path style="opacity:1" fill="#333325" d="M 246.5,50.5 C 247.167,50.8333 247.833,51.1667 248.5,51.5C 252.25,56.0736 254.25,61.4069 254.5,67.5C 254.5,69.1667 254.5,70.8333 254.5,72.5C 253.523,69.7131 253.19,66.7131 253.5,63.5C 252.5,63.5 251.5,63.5 250.5,63.5C 250.826,71.6841 250.492,79.6841 249.5,87.5C 249.839,78.7741 249.339,70.1074 248,61.5C 247.138,59.913 246.471,58.2464 246,56.5C 244.306,55.3012 242.806,53.9678 241.5,52.5C 243.698,52.8799 245.365,52.2132 246.5,50.5 Z"/></g>
<g><path style="opacity:1" fill="#1f1c17" d="M 259.5,47.5 C 268.872,50.0655 277.872,53.3989 286.5,57.5C 285.662,57.8417 285.328,58.5084 285.5,59.5C 285.167,59.5 284.833,59.5 284.5,59.5C 280.388,58.4727 276.388,57.1394 272.5,55.5C 271.486,54.3263 270.153,53.6596 268.5,53.5C 266.035,53.233 263.701,52.5664 261.5,51.5C 260.993,50.1411 259.993,49.1411 258.5,48.5C 258.624,47.8933 258.957,47.56 259.5,47.5 Z"/></g>
<g><path style="opacity:0.11" fill="#cccfa3" d="M 56.5,53.5 C 56.8333,53.5 57.1667,53.5 57.5,53.5C 56.4479,55.256 54.7812,55.9227 52.5,55.5C 53.8333,54.8333 55.1667,54.1667 56.5,53.5 Z"/></g>
<g><path style="opacity:1" fill="#090a0e" d="M 81.5,52.5 C 82.5832,52.5394 83.5832,52.8728 84.5,53.5C 85.4963,59.7985 85.8297,66.1318 85.5,72.5C 85.5,74.5 85.5,76.5 85.5,78.5C 85.5,80.8333 85.5,83.1667 85.5,85.5C 84.1667,85.5 82.8333,85.5 81.5,85.5C 81.5,74.5 81.5,63.5 81.5,52.5 Z"/></g>
<g><path style="opacity:0.11" fill="#c1bc90" d="M 268.5,53.5 C 270.153,53.6596 271.486,54.3263 272.5,55.5C 270.62,55.7709 269.287,55.1042 268.5,53.5 Z"/></g>
<g><path style="opacity:0.734" fill="#65663a" d="M 81.5,49.5 C 81.5,50.5 81.5,51.5 81.5,52.5C 81.5,63.5 81.5,74.5 81.5,85.5C 81.2066,92.2554 81.5399,98.9221 82.5,105.5C 80.7095,101.948 79.7095,97.948 79.5,93.5C 80.8159,80.481 80.8159,67.481 79.5,54.5C 80.0276,52.6639 80.6942,50.9972 81.5,49.5 Z"/></g>
<g><path style="opacity:1" fill="#0c0e09" d="M 177.5,51.5 C 177.5,56.8333 177.5,62.1667 177.5,67.5C 176.5,67.5 175.5,67.5 174.5,67.5C 174.5,74.1667 174.5,80.8333 174.5,87.5C 174.167,87.5 173.833,87.5 173.5,87.5C 173.5,76.1667 173.5,64.8333 173.5,53.5C 174.605,52.3995 175.938,51.7329 177.5,51.5 Z"/></g>
<g><path style="opacity:1" fill="#0b0c0d" d="M 195.5,83.5 C 194.833,82.8333 194.167,82.1667 193.5,81.5C 193.167,65.4861 193.501,49.4861 194.5,33.5C 195.499,50.1533 195.833,66.82 195.5,83.5 Z"/></g>
<g><path style="opacity:1" fill="#08080f" d="M 211.5,45.5 C 212.5,45.5 213.5,45.5 214.5,45.5C 214.205,47.7354 214.539,49.7354 215.5,51.5C 215.5,52.8333 215.5,54.1667 215.5,55.5C 214.669,71.3281 214.169,87.3281 214,103.5C 213.583,104.756 212.75,105.423 211.5,105.5C 211.5,85.5 211.5,65.5 211.5,45.5 Z"/></g>
<g><path style="opacity:1" fill="#090b08" d="M 215.5,55.5 C 215.5,75.5 215.5,95.5 215.5,115.5C 214.178,115.33 213.011,115.663 212,116.5C 211.501,112.848 211.335,109.182 211.5,105.5C 212.75,105.423 213.583,104.756 214,103.5C 214.169,87.3281 214.669,71.3281 215.5,55.5 Z"/></g>
<g><path style="opacity:1" fill="#1f1f0d" d="M 225.5,45.5 C 223.653,46.5729 221.653,46.5729 219.5,45.5C 218.791,44.596 217.791,44.2627 216.5,44.5C 216.5,68.1667 216.5,91.8333 216.5,115.5C 216.167,115.5 215.833,115.5 215.5,115.5C 215.5,95.5 215.5,75.5 215.5,55.5C 215.5,54.1667 215.5,52.8333 215.5,51.5C 215.5,48.8333 215.5,46.1667 215.5,43.5C 219.009,43.4576 222.342,44.1242 225.5,45.5 Z"/></g>
<g><path style="opacity:1" fill="#656549" d="M 233.5,47.5 C 232.37,49.3146 231.704,51.3146 231.5,53.5C 233.167,53.5 234.833,53.5 236.5,53.5C 235.394,56.054 234.561,58.7206 234,61.5C 233.5,70.8274 233.334,80.1607 233.5,89.5C 232.67,80.0087 232.17,70.342 232,60.5C 231.798,58.7444 231.298,57.0777 230.5,55.5C 229.749,56.376 229.249,57.376 229,58.5C 228.079,67.8134 227.579,77.1467 227.5,86.5C 226.337,76.9771 226.504,67.3104 228,57.5C 228.629,53.3935 230.463,50.0601 233.5,47.5 Z"/></g>
<g><path style="opacity:1" fill="#1e1d17" d="M 52.5,52.5 C 53.5676,53.4345 54.901,53.7678 56.5,53.5C 55.1667,54.1667 53.8333,54.8333 52.5,55.5C 50.4471,55.4021 48.7804,56.0687 47.5,57.5C 45.4471,57.4021 43.7804,58.0687 42.5,59.5C 42.1667,59.5 41.8333,59.5 41.5,59.5C 39.847,59.6596 38.5137,60.3263 37.5,61.5C 37.1667,61.5 36.8333,61.5 36.5,61.5C 34.4471,61.4021 32.7804,62.0687 31.5,63.5C 31.1667,63.5 30.8333,63.5 30.5,63.5C 28.847,63.6596 27.5137,64.3263 26.5,65.5C 24.7028,66.7298 22.7028,67.3964 20.5,67.5C 18.4471,67.4021 16.7804,68.0687 15.5,69.5C 10.6236,72.1745 9.29024,76.1745 11.5,81.5C 11.8333,82.5 12.5,83.1667 13.5,83.5C 15.153,83.6596 16.4863,84.3263 17.5,85.5C 16.8333,86.1667 16.1667,86.8333 15.5,87.5C 8.34639,85.5036 5.51306,80.837 7,73.5C 8.12173,71.3762 9.62173,69.5429 11.5,68C 24.9959,62.3354 38.6625,57.1687 52.5,52.5 Z"/></g>
<g><path style="opacity:0.243" fill="#a3a077" d="M 52.5,55.5 C 51.2196,56.9313 49.5529,57.5979 47.5,57.5C 48.7804,56.0687 50.4471,55.4021 52.5,55.5 Z"/></g>
<g><path style="opacity:0.122" fill="#bab683" d="M 47.5,57.5 C 46.2196,58.9313 44.5529,59.5979 42.5,59.5C 43.7804,58.0687 45.4471,57.4021 47.5,57.5 Z"/></g>
<g><path style="opacity:0.098" fill="#cbcb93" d="M 179.5,53.5 C 179.5,55.5 179.5,57.5 179.5,59.5C 179.246,61.4008 179.58,62.0674 180.5,61.5C 181.461,63.2646 181.795,65.2646 181.5,67.5C 180.978,65.7809 179.978,64.4475 178.5,63.5C 178.187,59.9581 178.521,56.6248 179.5,53.5 Z"/></g>
<g><path style="opacity:1" fill="#454319" d="M 179.5,53.5 C 178.521,56.6248 178.187,59.9581 178.5,63.5C 178.292,65.9201 178.626,68.2534 179.5,70.5C 178.845,90.2943 178.178,109.961 177.5,129.5C 177.5,126.833 177.5,124.167 177.5,121.5C 177.5,103.5 177.5,85.5 177.5,67.5C 177.5,62.1667 177.5,56.8333 177.5,51.5C 179.203,50.3398 179.869,51.0065 179.5,53.5 Z"/></g>
<g><path style="opacity:1" fill="#191512" d="M 286.5,57.5 C 294.167,60.1667 301.833,62.8333 309.5,65.5C 309.5,66.8333 308.833,67.5 307.5,67.5C 306.833,67.5 306.167,67.5 305.5,67.5C 303.167,66.8333 300.833,66.1667 298.5,65.5C 298.027,64.0937 297.027,63.427 295.5,63.5C 294.833,63.5 294.167,63.5 293.5,63.5C 292.486,62.3263 291.153,61.6596 289.5,61.5C 289.167,61.5 288.833,61.5 288.5,61.5C 287.71,60.5987 286.71,59.9321 285.5,59.5C 285.328,58.5084 285.662,57.8417 286.5,57.5 Z"/></g>
<g><path style="opacity:0.086" fill="#c9cc95" d="M 41.5,59.5 C 40.713,61.1042 39.3797,61.7709 37.5,61.5C 38.5137,60.3263 39.847,59.6596 41.5,59.5 Z"/></g>
<g><path style="opacity:0.153" fill="#bfb891" d="M 284.5,59.5 C 284.833,59.5 285.167,59.5 285.5,59.5C 286.71,59.9321 287.71,60.5987 288.5,61.5C 286.62,61.7709 285.287,61.1042 284.5,59.5 Z"/></g>
<g><path style="opacity:0.471" fill="#7e7d4d" d="M 49.5,65.5 C 50.209,64.596 51.209,64.2627 52.5,64.5C 52.5,63.5 52.5,62.5 52.5,61.5C 50.8333,61.5 49.1667,61.5 47.5,61.5C 52.1376,58.099 54.1376,59.4323 53.5,65.5C 52.1667,65.5 50.8333,65.5 49.5,65.5 Z"/></g>
<g><path style="opacity:1" fill="#1d1d19" d="M 137.5,55.5 C 137.5,57.1667 137.5,58.8333 137.5,60.5C 137.666,65.5111 137.499,70.5111 137,75.5C 136.667,74.5 136.333,73.5 136,72.5C 135.768,73.7375 135.268,74.7375 134.5,75.5C 134.5,74.8333 134.167,74.5 133.5,74.5C 133.146,69.3947 133.146,64.3947 133.5,59.5C 134.393,57.703 135.726,56.3696 137.5,55.5 Z"/></g>
<g><path style="opacity:0.043" fill="#c4c29e" d="M 36.5,61.5 C 35.3646,63.2132 33.698,63.8799 31.5,63.5C 32.7804,62.0687 34.4471,61.4021 36.5,61.5 Z"/></g>
<g><path style="opacity:0.737" fill="#919456" d="M 45.5,61.5 C 45.0269,62.9063 44.0269,63.573 42.5,63.5C 42.9731,62.0937 43.9731,61.427 45.5,61.5 Z"/></g>
<g><path style="opacity:0.086" fill="#d0cb9c" d="M 289.5,61.5 C 291.153,61.6596 292.486,62.3263 293.5,63.5C 291.62,63.7709 290.287,63.1042 289.5,61.5 Z"/></g>
<g><path style="opacity:1" fill="#141415" d="M 45.5,61.5 C 46.1667,61.5 46.8333,61.5 47.5,61.5C 49.1667,61.5 50.8333,61.5 52.5,61.5C 52.5,62.5 52.5,63.5 52.5,64.5C 51.209,64.2627 50.209,64.596 49.5,65.5C 46.0524,64.9006 43.3857,65.9006 41.5,68.5C 41.5,69.1667 41.1667,69.5 40.5,69.5C 38.857,69.4802 37.5237,70.1468 36.5,71.5C 35.8333,73.5 35.1667,75.5 34.5,77.5C 32.3256,75.4734 31.9922,73.1401 33.5,70.5C 33.5,69.8333 33.5,69.1667 33.5,68.5C 35.4044,68.2624 36.7377,67.2624 37.5,65.5C 38.7791,64.032 40.4458,63.3653 42.5,63.5C 44.0269,63.573 45.0269,62.9063 45.5,61.5 Z"/></g>
<g><path style="opacity:0.471" fill="#a1a26f" d="M 113.5,59.5 C 113.833,59.5 114.167,59.5 114.5,59.5C 115.388,62.0545 115.721,64.7212 115.5,67.5C 114.71,66.3915 114.21,65.0581 114,63.5C 113.821,67.0252 113.321,70.3586 112.5,73.5C 112.283,68.7697 112.617,64.1031 113.5,59.5 Z"/></g>
<g><path style="opacity:0.141" fill="#b6b989" d="M 30.5,63.5 C 29.713,65.1042 28.3797,65.7709 26.5,65.5C 27.5137,64.3263 28.847,63.6596 30.5,63.5 Z"/></g>
<g><path style="opacity:0.031" fill="#b4b582" d="M 269.5,62.5 C 271.104,63.287 271.771,64.6203 271.5,66.5C 270.833,65.8333 270.167,65.1667 269.5,64.5C 269.5,63.8333 269.5,63.1667 269.5,62.5 Z"/></g>
<g><path style="opacity:0.122" fill="#b5b97e" d="M 295.5,63.5 C 297.027,63.427 298.027,64.0937 298.5,65.5C 296.973,65.573 295.973,64.9063 295.5,63.5 Z"/></g>
<g><path style="opacity:1" fill="#5c5c37" d="M 49.5,65.5 C 47.064,66.871 44.3973,67.871 41.5,68.5C 43.3857,65.9006 46.0524,64.9006 49.5,65.5 Z"/></g>
<g><path style="opacity:1" fill="#202018" d="M 182.5,51.5 C 182.833,51.5 183.167,51.5 183.5,51.5C 185.166,61.4974 186.833,71.4974 188.5,81.5C 188.975,85.4158 187.975,88.7491 185.5,91.5C 185.5,90.8333 185.5,90.1667 185.5,89.5C 185.451,85.9219 184.785,82.5885 183.5,79.5C 183.663,77.1432 183.497,74.8098 183,72.5C 182.617,71.944 182.117,71.6107 181.5,71.5C 181.5,70.1667 181.5,68.8333 181.5,67.5C 181.795,65.2646 181.461,63.2646 180.5,61.5C 180.672,60.5084 180.338,59.8417 179.5,59.5C 179.5,57.5 179.5,55.5 179.5,53.5C 180.239,53.369 180.906,53.5357 181.5,54C 180.483,55.0495 180.316,56.2161 181,57.5C 182.128,55.6547 182.628,53.6547 182.5,51.5 Z"/></g>
<g><path style="opacity:0.671" fill="#8e8857" d="M 37.5,65.5 C 36.7377,67.2624 35.4044,68.2624 33.5,68.5C 34.2623,66.7376 35.5956,65.7376 37.5,65.5 Z"/></g>
<g><path style="opacity:1" fill="#17160a" d="M 263.5,55.5 C 267.562,55.9354 269.562,58.2687 269.5,62.5C 268.034,61.653 267.2,60.3197 267,58.5C 266.075,59.0465 265.242,59.7132 264.5,60.5C 263.574,64.0938 263.241,67.7604 263.5,71.5C 263.203,78.5581 263.536,85.5581 264.5,92.5C 264.058,93.7387 263.391,94.7387 262.5,95.5C 262.171,81.9895 262.504,68.6562 263.5,55.5 Z"/></g>
<g><path style="opacity:0.467" fill="#918f59" d="M 282.5,62.5 C 281.508,69.6476 281.175,76.9809 281.5,84.5C 280.094,84.0269 279.427,83.0269 279.5,81.5C 280.167,74.9881 280.833,68.3214 281.5,61.5C 282.107,61.6236 282.44,61.9569 282.5,62.5 Z"/></g>
<g><path style="opacity:0.153" fill="#acb17d" d="M 20.5,67.5 C 19.2196,68.9313 17.5529,69.5979 15.5,69.5C 16.7804,68.0687 18.4471,67.4021 20.5,67.5 Z"/></g>
<g><path style="opacity:0.098" fill="#cdca9b" d="M 305.5,67.5 C 306.167,67.5 306.833,67.5 307.5,67.5C 308.167,68.1667 308.833,68.8333 309.5,69.5C 307.62,69.7709 306.287,69.1042 305.5,67.5 Z"/></g>
<g><path style="opacity:1" fill="#0c0b0d" d="M 269.5,62.5 C 269.5,63.1667 269.5,63.8333 269.5,64.5C 269.737,65.791 269.404,66.791 268.5,67.5C 266.537,74.4238 265.87,81.7572 266.5,89.5C 266.147,83.2645 265.147,77.2645 263.5,71.5C 263.241,67.7604 263.574,64.0938 264.5,60.5C 265.242,59.7132 266.075,59.0465 267,58.5C 267.2,60.3197 268.034,61.653 269.5,62.5 Z"/></g>
<g><path style="opacity:1" fill="#0d0e0f" d="M 282.5,62.5 C 283.469,63.3094 284.302,64.3094 285,65.5C 285.5,73.8267 285.666,82.16 285.5,90.5C 281.585,93.5587 278.918,92.5587 277.5,87.5C 278.448,86.0221 279.781,85.0221 281.5,84.5C 281.175,76.9809 281.508,69.6476 282.5,62.5 Z"/></g>
<g><path style="opacity:0.694" fill="#7b7f58" d="M 33.5,68.5 C 33.5,69.1667 33.5,69.8333 33.5,70.5C 32.8333,70.8333 32.1667,71.1667 31.5,71.5C 31.427,69.9731 32.0937,68.9731 33.5,68.5 Z"/></g>
<g><path style="opacity:0.329" fill="#a3ab6b" d="M 268.5,68.5 C 269.11,69.391 269.443,70.391 269.5,71.5C 268.833,71.5 268.167,71.5 267.5,71.5C 267.263,70.209 267.596,69.209 268.5,68.5 Z"/></g>
<g><path style="opacity:0.702" fill="#5c5c32" d="M 282.5,62.5 C 283.822,62.33 284.989,62.6634 286,63.5C 286.824,72.6762 286.657,81.6762 285.5,90.5C 285.666,82.16 285.5,73.8267 285,65.5C 284.302,64.3094 283.469,63.3094 282.5,62.5 Z"/></g>
<g><path style="opacity:1" fill="#1e1f17" d="M 65.5,95.5 C 64.0821,97.3079 62.0821,97.9746 59.5,97.5C 58.1667,84.1667 58.1667,70.8333 59.5,57.5C 61.0418,56.6993 62.7085,56.366 64.5,56.5C 64.1712,69.6774 64.5045,82.6774 65.5,95.5 Z"/></g>
<g><path style="opacity:0.141" fill="#c4c395" d="M 65.5,95.5 C 64.5045,82.6774 64.1712,69.6774 64.5,56.5C 62.7085,56.366 61.0418,56.6993 59.5,57.5C 60.9179,55.6921 62.9179,55.0254 65.5,55.5C 65.5,68.8333 65.5,82.1667 65.5,95.5 Z"/></g>
<g><path style="opacity:0.471" fill="#8a8a4b" d="M 208.5,41.5 C 209.5,41.5 210.5,41.5 211.5,41.5C 211.5,42.8333 211.5,44.1667 211.5,45.5C 211.5,65.5 211.5,85.5 211.5,105.5C 211.335,109.182 211.501,112.848 212,116.5C 213.011,115.663 214.178,115.33 215.5,115.5C 214.22,116.931 212.553,117.598 210.5,117.5C 211.143,91.939 210.476,66.6056 208.5,41.5 Z"/></g>
<g><path style="opacity:0.136" fill="#c6c595" d="M 219.5,45.5 C 217.836,68.6488 216.836,91.9821 216.5,115.5C 216.5,91.8333 216.5,68.1667 216.5,44.5C 217.791,44.2627 218.791,44.596 219.5,45.5 Z"/></g>
<g><path style="opacity:1" fill="#161512" d="M 233.5,89.5 C 233.833,92.1667 234.167,94.8333 234.5,97.5C 235.205,100.244 235.205,102.911 234.5,105.5C 233.914,105.709 233.414,106.043 233,106.5C 232.503,104.19 232.337,101.857 232.5,99.5C 230.801,99.4729 229.467,98.8062 228.5,97.5C 227.656,93.9009 227.323,90.2343 227.5,86.5C 227.579,77.1467 228.079,67.8134 229,58.5C 229.249,57.376 229.749,56.376 230.5,55.5C 231.298,57.0777 231.798,58.7444 232,60.5C 232.17,70.342 232.67,80.0087 233.5,89.5 Z"/></g>
<g><path style="opacity:0.306" fill="#a8a678" d="M 263.5,55.5 C 262.504,68.6562 262.171,81.9895 262.5,95.5C 263.183,97.1765 264.517,97.8432 266.5,97.5C 266.167,98.1667 265.833,98.8333 265.5,99.5C 264.167,99.5 262.833,99.5 261.5,99.5C 261.167,84.4852 261.501,69.4852 262.5,54.5C 263.107,54.6236 263.44,54.9569 263.5,55.5 Z"/></g>
<g><path style="opacity:1" fill="#0d0a0f" d="M 263.5,71.5 C 265.147,77.2645 266.147,83.2645 266.5,89.5C 266.5,92.1667 266.5,94.8333 266.5,97.5C 264.517,97.8432 263.183,97.1765 262.5,95.5C 263.391,94.7387 264.058,93.7387 264.5,92.5C 263.536,85.5581 263.203,78.5581 263.5,71.5 Z"/></g>
<g><path style="opacity:0.285" fill="#aeaf75" d="M 295.5,67.5 C 295.5,67.8333 295.5,68.1667 295.5,68.5C 294.88,74.9262 295.547,80.9262 297.5,86.5C 297.5,86.8333 297.5,87.1667 297.5,87.5C 296.5,87.5 295.5,87.5 294.5,87.5C 294.176,80.6457 294.509,73.979 295.5,67.5 Z"/></g>
<g><path style="opacity:0.847" fill="#6d6c45" d="M 299.5,85.5 C 299.5,80.1667 299.5,74.8333 299.5,69.5C 298.041,69.5674 296.708,69.2341 295.5,68.5C 295.5,68.1667 295.5,67.8333 295.5,67.5C 295.435,67.0618 295.601,66.7284 296,66.5C 298.365,67.2891 300.532,68.4558 302.5,70C 301.643,70.6891 300.977,71.5224 300.5,72.5C 300.833,75.8333 301.167,79.1667 301.5,82.5C 301.058,83.7387 300.391,84.7387 299.5,85.5 Z"/></g>
<g><path style="opacity:0.867" fill="#858450" d="M 86.5,71.5 C 90.5,72.6551 94.5,72.8217 98.5,72C 99.8112,74.2735 99.8112,76.4402 98.5,78.5C 98.5,76.8333 98.5,75.1667 98.5,73.5C 94.2984,73.8168 90.2984,73.4834 86.5,72.5C 86.5,72.1667 86.5,71.8333 86.5,71.5 Z"/></g>
<g><path style="opacity:1" fill="#211f18" d="M 309.5,65.5 C 317.231,67.6319 320.398,72.6319 319,80.5C 318.34,82.3237 317.173,83.657 315.5,84.5C 314.791,83.596 313.791,83.2627 312.5,83.5C 318.141,77.4219 317.141,72.7552 309.5,69.5C 308.833,68.8333 308.167,68.1667 307.5,67.5C 308.833,67.5 309.5,66.8333 309.5,65.5 Z"/></g>
<g><path style="opacity:0.89" fill="#7c7c49" d="M 181.5,71.5 C 182.117,71.6107 182.617,71.944 183,72.5C 183.497,74.8098 183.663,77.1432 183.5,79.5C 182.629,76.997 181.963,74.3303 181.5,71.5 Z"/></g>
<g><path style="opacity:0.78" fill="#7e7f57" d="M 109.5,58.5 C 109.5,60.5 109.5,62.5 109.5,64.5C 109.069,68.3366 108.402,72.0032 107.5,75.5C 107.321,69.5958 107.988,63.9291 109.5,58.5 Z"/></g>
<g><path style="opacity:1" fill="#0f0f0b" d="M 295.5,68.5 C 296.708,69.2341 298.041,69.5674 299.5,69.5C 299.5,74.8333 299.5,80.1667 299.5,85.5C 299.158,86.3382 298.492,86.6716 297.5,86.5C 295.547,80.9262 294.88,74.9262 295.5,68.5 Z"/></g>
<g><path style="opacity:1" fill="#100e09" d="M 85.5,72.5 C 85.8333,72.5 86.1667,72.5 86.5,72.5C 90.2984,73.4834 94.2984,73.8168 98.5,73.5C 98.5,75.1667 98.5,76.8333 98.5,78.5C 94.1667,78.5 89.8333,78.5 85.5,78.5C 85.5,76.5 85.5,74.5 85.5,72.5 Z"/></g>
<g><path style="opacity:0.699" fill="#929256" d="M 165.5,71.5 C 166.468,73.6074 166.802,75.9407 166.5,78.5C 162.239,79.092 157.906,79.092 153.5,78.5C 157.298,77.5166 161.298,77.1832 165.5,77.5C 165.5,75.5 165.5,73.5 165.5,71.5 Z"/></g>
<g><path style="opacity:1" fill="#27281e" d="M 40.5,69.5 C 35.7888,76.484 36.7888,82.484 43.5,87.5C 44.7804,88.9313 46.4471,89.5979 48.5,89.5C 48.8333,89.5 49.1667,89.5 49.5,89.5C 50.209,90.404 51.209,90.7373 52.5,90.5C 52.5,91.5 52.5,92.5 52.5,93.5C 51.1667,93.5 49.8333,93.5 48.5,93.5C 48.1667,93.5 47.8333,93.5 47.5,93.5C 45.2446,91.6197 42.5779,90.6197 39.5,90.5C 30.4263,86.7012 27.7596,80.3679 31.5,71.5C 32.1667,71.1667 32.8333,70.8333 33.5,70.5C 31.9922,73.1401 32.3256,75.4734 34.5,77.5C 35.1667,75.5 35.8333,73.5 36.5,71.5C 37.5237,70.1468 38.857,69.4802 40.5,69.5 Z"/></g>
<g><path style="opacity:1" fill="#25241b" d="M 269.5,64.5 C 270.167,65.1667 270.833,65.8333 271.5,66.5C 273.771,70.7091 275.771,75.0424 277.5,79.5C 277.833,80.5 278.5,81.1667 279.5,81.5C 279.427,83.0269 280.094,84.0269 281.5,84.5C 279.781,85.0221 278.448,86.0221 277.5,87.5C 276.263,86.0351 275.263,84.3684 274.5,82.5C 274.008,80.1815 273.008,78.1815 271.5,76.5C 270.069,75.2196 269.402,73.5529 269.5,71.5C 269.443,70.391 269.11,69.391 268.5,68.5C 268.5,68.1667 268.5,67.8333 268.5,67.5C 269.404,66.791 269.737,65.791 269.5,64.5 Z"/></g>
<g><path style="opacity:0.306" fill="#a8a77c" d="M 192.5,29.5 C 192.5,52.5 192.5,75.5 192.5,98.5C 191.463,97.0697 190.796,95.403 190.5,93.5C 191.167,72.1667 191.833,50.8333 192.5,29.5 Z"/></g>
<g><path style="opacity:0.012" fill="#d4cf9d" d="M 277.5,79.5 C 278.833,79.5 279.5,80.1667 279.5,81.5C 278.5,81.1667 277.833,80.5 277.5,79.5 Z"/></g>
<g><path style="opacity:0.031" fill="#c9cc99" d="M 271.5,76.5 C 273.008,78.1815 274.008,80.1815 274.5,82.5C 272.461,81.089 271.461,79.089 271.5,76.5 Z"/></g>
<g><path style="opacity:0.031" fill="#d9d7a9" d="M 11.5,81.5 C 12.8333,81.5 13.5,82.1667 13.5,83.5C 12.5,83.1667 11.8333,82.5 11.5,81.5 Z"/></g>
<g><path style="opacity:0.896" fill="#413f30" d="M 268.5,67.5 C 268.5,67.8333 268.5,68.1667 268.5,68.5C 267.596,69.209 267.263,70.209 267.5,71.5C 267.826,80.3494 267.493,89.0161 266.5,97.5C 266.5,94.8333 266.5,92.1667 266.5,89.5C 265.87,81.7572 266.537,74.4238 268.5,67.5 Z"/></g>
<g><path style="opacity:1" fill="#26261d" d="M 111.5,83.5 C 111.724,91.3894 111.058,99.0561 109.5,106.5C 109.826,102.116 109.492,97.7828 108.5,93.5C 107.479,94.9014 106.479,96.2347 105.5,97.5C 105.655,90.1104 106.321,82.7771 107.5,75.5C 108.402,72.0032 109.069,68.3366 109.5,64.5C 110.117,64.3893 110.617,64.056 111,63.5C 111.5,70.1583 111.666,76.825 111.5,83.5 Z"/></g>
<g><path style="opacity:0.208" fill="#979563" d="M 183.5,79.5 C 184.785,82.5885 185.451,85.9219 185.5,89.5C 183.989,86.4557 183.322,83.1224 183.5,79.5 Z"/></g>
<g><path style="opacity:0.298" fill="#97966b" d="M 119.5,71.5 C 120.806,76.6161 121.473,81.9494 121.5,87.5C 119.922,82.4174 119.255,77.084 119.5,71.5 Z"/></g>
<g><path style="opacity:0.012" fill="#c3bd8c" d="M 17.5,85.5 C 19.698,85.1201 21.3646,85.7868 22.5,87.5C 20.597,87.2041 18.9303,86.5375 17.5,85.5 Z"/></g>
<g><path style="opacity:1" fill="#7c775f" d="M 311.5,83.5 C 309.815,85.8176 307.481,86.8176 304.5,86.5C 306.604,85.0883 308.937,84.0883 311.5,83.5 Z"/></g>
<g><path style="opacity:1" fill="#201f19" d="M 129.5,81.5 C 129.5,82.8333 129.5,84.1667 129.5,85.5C 127.989,88.5443 127.322,91.8776 127.5,95.5C 125.902,93.1433 124.902,90.4766 124.5,87.5C 124.782,81.9793 125.449,76.646 126.5,71.5C 127.165,69.6309 127.831,67.6309 128.5,65.5C 129.495,70.7921 129.828,76.1254 129.5,81.5 Z"/></g>
<g><path style="opacity:1" fill="#353423" d="M 137.5,60.5 C 139.157,74.6372 140.157,88.9705 140.5,103.5C 139.433,97.8766 137.767,92.5433 135.5,87.5C 135.167,83.5 134.833,79.5 134.5,75.5C 135.268,74.7375 135.768,73.7375 136,72.5C 136.333,73.5 136.667,74.5 137,75.5C 137.499,70.5111 137.666,65.5111 137.5,60.5 Z"/></g>
<g><path style="opacity:1" fill="#090a0b" d="M 177.5,67.5 C 177.5,85.5 177.5,103.5 177.5,121.5C 176.5,121.5 175.5,121.5 174.5,121.5C 174.5,110.167 174.5,98.8333 174.5,87.5C 174.5,80.8333 174.5,74.1667 174.5,67.5C 175.5,67.5 176.5,67.5 177.5,67.5 Z"/></g>
<g><path style="opacity:1" fill="#070d0a" d="M 193.5,81.5 C 194.167,82.1667 194.833,82.8333 195.5,83.5C 195.232,85.099 195.566,86.4324 196.5,87.5C 196.5,90.8333 196.5,94.1667 196.5,97.5C 195.834,100.689 195.167,104.023 194.5,107.5C 193.571,106.311 193.238,104.978 193.5,103.5C 193.5,101.833 193.5,100.167 193.5,98.5C 193.5,92.8333 193.5,87.1667 193.5,81.5 Z"/></g>
<g><path style="opacity:1" fill="#16140c" d="M 17.5,85.5 C 18.9303,86.5375 20.597,87.2041 22.5,87.5C 22.8333,87.5 23.1667,87.5 23.5,87.5C 24.7804,88.9313 26.4471,89.5979 28.5,89.5C 28.8333,89.5 29.1667,89.5 29.5,89.5C 30.5137,90.6737 31.847,91.3404 33.5,91.5C 34.1667,91.5 34.8333,91.5 35.5,91.5C 35.8333,92.1667 36.1667,92.8333 36.5,93.5C 35.209,93.2627 34.209,93.596 33.5,94.5C 27.2669,92.5377 21.2669,90.2044 15.5,87.5C 16.1667,86.8333 16.8333,86.1667 17.5,85.5 Z"/></g>
<g><path style="opacity:0.427" fill="#a19d6a" d="M 23.5,87.5 C 25.5529,87.4021 27.2196,88.0687 28.5,89.5C 26.4471,89.5979 24.7804,88.9313 23.5,87.5 Z"/></g>
<g><path style="opacity:0.286" fill="#b4af73" d="M 43.5,87.5 C 45.5529,87.4021 47.2196,88.0687 48.5,89.5C 46.4471,89.5979 44.7804,88.9313 43.5,87.5 Z"/></g>
<g><path style="opacity:0.702" fill="#8f8e5f" d="M 133.5,74.5 C 134.167,74.5 134.5,74.8333 134.5,75.5C 134.833,79.5 135.167,83.5 135.5,87.5C 135.5,92.1667 135.5,96.8333 135.5,101.5C 134.228,92.6939 133.561,83.6939 133.5,74.5 Z"/></g>
<g><path style="opacity:0.463" fill="#bcc186" d="M 297.5,87.5 C 298.5,87.5 299.5,87.5 300.5,87.5C 299.486,88.6737 298.153,89.3404 296.5,89.5C 296.833,88.8333 297.167,88.1667 297.5,87.5 Z"/></g>
<g><path style="opacity:0.22" fill="#b3b27b" d="M 29.5,89.5 C 31.3797,89.2291 32.713,89.8958 33.5,91.5C 31.847,91.3404 30.5137,90.6737 29.5,89.5 Z"/></g>
<g><path style="opacity:1" fill="#0d0c0e" d="M 254.5,72.5 C 254.151,80.9313 253.151,89.2646 251.5,97.5C 248.231,99.1139 246.564,101.781 246.5,105.5C 245.833,105.5 245.5,105.833 245.5,106.5C 244.508,106.328 243.842,106.662 243.5,107.5C 243.167,107.5 242.833,107.5 242.5,107.5C 241.833,107.5 241.167,107.5 240.5,107.5C 235.306,107.058 235.306,106.058 240.5,104.5C 241.612,103.735 242.279,102.735 242.5,101.5C 245.077,100.394 246.744,98.3939 247.5,95.5C 249.04,93.1617 249.706,90.4951 249.5,87.5C 250.492,79.6841 250.826,71.6841 250.5,63.5C 251.5,63.5 252.5,63.5 253.5,63.5C 253.19,66.7131 253.523,69.7131 254.5,72.5 Z"/></g>
<g><path style="opacity:0.584" fill="#aaa975" d="M 295.5,89.5 C 294.486,90.6737 293.153,91.3404 291.5,91.5C 292.287,89.8958 293.62,89.2291 295.5,89.5 Z"/></g>
<g><path style="opacity:1" fill="#0a0b0b" d="M 81.5,85.5 C 82.8333,85.5 84.1667,85.5 85.5,85.5C 85.1805,90.3633 85.5139,95.03 86.5,99.5C 86.5,100.5 86.5,101.5 86.5,102.5C 87.5,102.5 88.5,102.5 89.5,102.5C 89.5,103.5 89.5,104.5 89.5,105.5C 87.8333,105.5 86.1667,105.5 84.5,105.5C 83.8333,105.5 83.1667,105.5 82.5,105.5C 81.5399,98.9221 81.2066,92.2554 81.5,85.5 Z"/></g>
<g><path style="opacity:0.914" fill="#717048" d="M 85.5,78.5 C 89.8333,78.5 94.1667,78.5 98.5,78.5C 94.7016,79.4834 90.7016,79.8168 86.5,79.5C 87.7589,86.3172 87.7589,92.9838 86.5,99.5C 85.5139,95.03 85.1805,90.3633 85.5,85.5C 85.5,83.1667 85.5,80.8333 85.5,78.5 Z"/></g>
<g><path style="opacity:1" fill="#090903" d="M 148.5,71.5 C 149.5,71.5 150.5,71.5 151.5,71.5C 151.5,72.1667 151.5,72.8333 151.5,73.5C 150.375,89.6398 149.375,105.64 148.5,121.5C 148.5,104.833 148.5,88.1667 148.5,71.5 Z"/></g>
<g><path style="opacity:0.988" fill="#666337" d="M 249.5,87.5 C 249.706,90.4951 249.04,93.1617 247.5,95.5C 247.565,92.5718 248.232,89.9052 249.5,87.5 Z"/></g>
<g><path style="opacity:0.396" fill="#afae75" d="M 35.5,91.5 C 37.3797,91.2291 38.713,91.8958 39.5,93.5C 38.5,93.5 37.5,93.5 36.5,93.5C 36.1667,92.8333 35.8333,92.1667 35.5,91.5 Z"/></g>
<g><path style="opacity:0.769" fill="#767b5f" d="M 39.5,90.5 C 42.5779,90.6197 45.2446,91.6197 47.5,93.5C 44.4221,93.3803 41.7554,92.3803 39.5,90.5 Z"/></g>
<g><path style="opacity:0.847" fill="#797b4a" d="M 129.5,85.5 C 129.259,90.694 128.593,95.694 127.5,100.5C 127.5,98.8333 127.5,97.1667 127.5,95.5C 127.322,91.8776 127.989,88.5443 129.5,85.5 Z"/></g>
<g><path style="opacity:1" fill="#59583f" d="M 254.5,67.5 C 255.654,73.987 255.821,80.6536 255,87.5C 254.698,91.2451 253.531,94.5784 251.5,97.5C 253.151,89.2646 254.151,80.9313 254.5,72.5C 254.5,70.8333 254.5,69.1667 254.5,67.5 Z"/></g>
<g><path style="opacity:1" fill="#12110c" d="M 311.5,83.5 C 311.833,83.5 312.167,83.5 312.5,83.5C 313.791,83.2627 314.791,83.596 315.5,84.5C 307.128,88.6811 298.461,92.3478 289.5,95.5C 288.624,95.6309 287.957,95.2975 287.5,94.5C 288.624,93.1408 289.958,92.1408 291.5,91.5C 293.153,91.3404 294.486,90.6737 295.5,89.5C 295.833,89.5 296.167,89.5 296.5,89.5C 298.153,89.3404 299.486,88.6737 300.5,87.5C 301.833,87.1667 303.167,86.8333 304.5,86.5C 307.481,86.8176 309.815,85.8176 311.5,83.5 Z"/></g>
<g><path style="opacity:0.584" fill="#989453" d="M 49.5,89.5 C 50.8333,89.5 52.1667,89.5 53.5,89.5C 53.5,91.1667 53.5,92.8333 53.5,94.5C 51.5853,94.7845 49.9187,94.4511 48.5,93.5C 49.8333,93.5 51.1667,93.5 52.5,93.5C 52.5,92.5 52.5,91.5 52.5,90.5C 51.209,90.7373 50.209,90.404 49.5,89.5 Z"/></g>
<g><path style="opacity:0.714" fill="#635f4c" d="M 193.5,29.5 C 194.822,29.33 195.989,29.6634 197,30.5C 197.5,61.4982 197.667,92.4982 197.5,123.5C 196.167,123.5 194.833,123.5 193.5,123.5C 194.209,122.596 195.209,122.263 196.5,122.5C 196.5,114.167 196.5,105.833 196.5,97.5C 196.5,94.1667 196.5,90.8333 196.5,87.5C 196.667,68.8304 196.5,50.1637 196,31.5C 195.005,30.9341 194.172,30.2674 193.5,29.5 Z"/></g>
<g><path style="opacity:1" fill="#5a5b3b" d="M 291.5,91.5 C 289.958,92.1408 288.624,93.1408 287.5,94.5C 287.957,95.2975 288.624,95.6309 289.5,95.5C 288.791,96.404 287.791,96.7373 286.5,96.5C 286.38,95.4138 285.713,94.7472 284.5,94.5C 283.151,94.8457 281.817,95.179 280.5,95.5C 280.611,94.8826 280.944,94.3826 281.5,94C 284.946,93.3387 288.279,92.5054 291.5,91.5 Z"/></g>
<g><path style="opacity:0.616" fill="#847f4e" d="M 39.5,93.5 C 41.5529,93.4021 43.2196,94.0687 44.5,95.5C 42.4471,95.5979 40.7804,94.9313 39.5,93.5 Z"/></g>
<g><path style="opacity:1" fill="#12120f" d="M 33.5,94.5 C 34.209,93.596 35.209,93.2627 36.5,93.5C 37.5,93.5 38.5,93.5 39.5,93.5C 40.7804,94.9313 42.4471,95.5979 44.5,95.5C 44.8333,95.5 45.1667,95.5 45.5,95.5C 46.5137,96.6737 47.847,97.3404 49.5,97.5C 49.8333,97.5 50.1667,97.5 50.5,97.5C 51.7804,98.9313 53.4471,99.5979 55.5,99.5C 57.7857,99.595 59.7857,100.262 61.5,101.5C 62.7653,102.479 64.0986,103.479 65.5,104.5C 65.3764,105.107 65.0431,105.44 64.5,105.5C 54.0657,102.116 43.7324,98.4494 33.5,94.5 Z"/></g>
<g><path style="opacity:0.024" fill="#adaa7a" d="M 66.5,95.5 C 68.8984,95.2594 70.8984,95.9261 72.5,97.5C 71.5,97.5 70.5,97.5 69.5,97.5C 68.5,96.8333 67.5,96.1667 66.5,95.5 Z"/></g>
<g><path style="opacity:0.416" fill="#98935e" d="M 45.5,95.5 C 47.3797,95.2291 48.713,95.8958 49.5,97.5C 47.847,97.3404 46.5137,96.6737 45.5,95.5 Z"/></g>
<g><path style="opacity:1" fill="#3a3a24" d="M 65.5,95.5 C 65.8333,95.5 66.1667,95.5 66.5,95.5C 67.5,96.1667 68.5,96.8333 69.5,97.5C 68.6236,97.3691 67.9569,97.7025 67.5,98.5C 68.9014,99.5207 70.2347,100.521 71.5,101.5C 67.233,100.744 63.233,99.411 59.5,97.5C 62.0821,97.9746 64.0821,97.3079 65.5,95.5 Z"/></g>
<g><path style="opacity:0.647" fill="#9d9f66" d="M 279.5,95.5 C 278.486,96.6737 277.153,97.3404 275.5,97.5C 276.287,95.8958 277.62,95.2291 279.5,95.5 Z"/></g>
<g><path style="opacity:1" fill="#0f0e0c" d="M 196.5,97.5 C 196.5,105.833 196.5,114.167 196.5,122.5C 195.209,122.263 194.209,122.596 193.5,123.5C 191.952,123.179 191.285,122.179 191.5,120.5C 191.401,117.327 192.068,114.327 193.5,111.5C 192.831,108.972 191.998,108.972 191,111.5C 189.344,108.947 189.177,106.281 190.5,103.5C 191.5,103.5 192.5,103.5 193.5,103.5C 193.238,104.978 193.571,106.311 194.5,107.5C 195.167,104.023 195.834,100.689 196.5,97.5 Z"/></g>
<g><path style="opacity:0.592" fill="#818252" d="M 50.5,97.5 C 52.5529,97.4021 54.2196,98.0687 55.5,99.5C 53.4471,99.5979 51.7804,98.9313 50.5,97.5 Z"/></g>
<g><path style="opacity:1" fill="#1f1f1e" d="M 69.5,97.5 C 70.5,97.5 71.5,97.5 72.5,97.5C 74.4147,97.2155 76.0813,97.5489 77.5,98.5C 77.762,99.9778 77.4287,101.311 76.5,102.5C 74.9291,101.691 73.2624,101.357 71.5,101.5C 70.2347,100.521 68.9014,99.5207 67.5,98.5C 67.9569,97.7025 68.6236,97.3691 69.5,97.5 Z"/></g>
<g><path style="opacity:0.439" fill="#bfbe87" d="M 273.5,97.5 C 272.486,98.6737 271.153,99.3404 269.5,99.5C 270.287,97.8958 271.62,97.2291 273.5,97.5 Z"/></g>
<g><path style="opacity:1" fill="#14130f" d="M 286.5,96.5 C 272.172,101.832 257.838,107.165 243.5,112.5C 242.432,111.566 241.099,111.232 239.5,111.5C 240.29,110.599 241.29,109.932 242.5,109.5C 243.167,109.5 243.5,109.167 243.5,108.5C 244.791,108.737 245.791,108.404 246.5,107.5C 247.167,107.5 247.833,107.5 248.5,107.5C 250.153,107.34 251.486,106.674 252.5,105.5C 252.833,105.5 253.167,105.5 253.5,105.5C 257.533,104.975 261.2,103.642 264.5,101.5C 266.153,101.34 267.486,100.674 268.5,99.5C 268.833,99.5 269.167,99.5 269.5,99.5C 271.153,99.3404 272.486,98.6737 273.5,97.5C 274.167,97.5 274.833,97.5 275.5,97.5C 277.153,97.3404 278.486,96.6737 279.5,95.5C 279.833,95.5 280.167,95.5 280.5,95.5C 281.817,95.179 283.151,94.8457 284.5,94.5C 285.713,94.7472 286.38,95.4138 286.5,96.5 Z"/></g>
<g><path style="opacity:1" fill="#323227" d="M 188.5,81.5 C 189.617,85.2949 190.283,89.2949 190.5,93.5C 190.796,95.403 191.463,97.0697 192.5,98.5C 192.833,98.5 193.167,98.5 193.5,98.5C 193.5,100.167 193.5,101.833 193.5,103.5C 192.5,103.5 191.5,103.5 190.5,103.5C 189.177,106.281 189.344,108.947 191,111.5C 191.998,108.972 192.831,108.972 193.5,111.5C 192.068,114.327 191.401,117.327 191.5,120.5C 188.586,111.16 186.586,101.494 185.5,91.5C 187.975,88.7491 188.975,85.4158 188.5,81.5 Z"/></g>
<g><path style="opacity:0.518" fill="#9e9c72" d="M 117.5,88.5 C 118.167,91.5 118.833,94.5 119.5,97.5C 120.054,104.153 120.388,110.82 120.5,117.5C 118.868,108.039 117.868,98.3727 117.5,88.5 Z"/></g>
<g><path style="opacity:0.741" fill="#a5a36c" d="M 247.5,95.5 C 246.744,98.3939 245.077,100.394 242.5,101.5C 243.72,99.0189 245.386,97.0189 247.5,95.5 Z"/></g>
<g><path style="opacity:0.604" fill="#a7a874" d="M 265.5,99.5 C 266.5,99.5 267.5,99.5 268.5,99.5C 267.486,100.674 266.153,101.34 264.5,101.5C 264.833,100.833 265.167,100.167 265.5,99.5 Z"/></g>
<g><path style="opacity:0.647" fill="#908c75" d="M 86.5,99.5 C 87.5,100.5 88.5,101.5 89.5,102.5C 88.5,102.5 87.5,102.5 86.5,102.5C 86.5,101.5 86.5,100.5 86.5,99.5 Z"/></g>
<g><path style="opacity:1" fill="#3f402b" d="M 251.5,97.5 C 250.831,100.849 249.164,103.516 246.5,105.5C 246.564,101.781 248.231,99.1139 251.5,97.5 Z"/></g>
<g><path style="opacity:0.89" fill="#89875c" d="M 77.5,98.5 C 78.874,100.517 78.7074,102.517 77,104.5C 74.9419,103.771 73.1086,102.771 71.5,101.5C 73.2624,101.357 74.9291,101.691 76.5,102.5C 77.4287,101.311 77.762,99.9778 77.5,98.5 Z"/></g>
<g><path style="opacity:1" fill="#635f3f" d="M 264.5,101.5 C 261.2,103.642 257.533,104.975 253.5,105.5C 256.8,103.358 260.467,102.025 264.5,101.5 Z"/></g>
<g><path style="opacity:0.078" fill="#d3d8a5" d="M 94.5,103.5 C 96.7812,103.077 98.4479,103.744 99.5,105.5C 97.6943,104.976 96.0276,104.309 94.5,103.5 Z"/></g>
<g><path style="opacity:1" fill="#0a0c0b" d="M 151.5,73.5 C 152.167,89.5 152.833,105.5 153.5,121.5C 153.5,122.167 153.5,122.833 153.5,123.5C 152.221,124.968 150.554,125.635 148.5,125.5C 148.5,124.167 148.5,122.833 148.5,121.5C 149.375,105.64 150.375,89.6398 151.5,73.5 Z"/></g>
<g><path style="opacity:1" fill="#303023" d="M 228.5,97.5 C 229.467,98.8062 230.801,99.4729 232.5,99.5C 232.337,101.857 232.503,104.19 233,106.5C 233.414,106.043 233.914,105.709 234.5,105.5C 235.205,102.911 235.205,100.244 234.5,97.5C 236.064,100.706 238.731,102.04 242.5,101.5C 242.279,102.735 241.612,103.735 240.5,104.5C 235.306,106.058 235.306,107.058 240.5,107.5C 237.974,108.657 235.307,108.657 232.5,107.5C 230.206,104.63 228.872,101.297 228.5,97.5 Z"/></g>
<g><path style="opacity:1" fill="#5a553d" d="M 61.5,101.5 C 65.3322,102.443 68.9989,103.777 72.5,105.5C 70.5853,105.216 68.9187,105.549 67.5,106.5C 66.209,106.737 65.209,106.404 64.5,105.5C 65.0431,105.44 65.3764,105.107 65.5,104.5C 64.0986,103.479 62.7653,102.479 61.5,101.5 Z"/></g>
<g><path style="opacity:0.592" fill="#959b5d" d="M 73.5,105.5 C 75.3797,105.229 76.713,105.896 77.5,107.5C 75.6203,107.771 74.287,107.104 73.5,105.5 Z"/></g>
<g><path style="opacity:0.11" fill="#d5d2a4" d="M 82.5,105.5 C 83.1667,105.5 83.8333,105.5 84.5,105.5C 85.1667,106.167 85.8333,106.833 86.5,107.5C 84.6203,107.771 83.287,107.104 82.5,105.5 Z"/></g>
<g><path style="opacity:1" fill="#1d1a14" d="M 89.5,102.5 C 91.2915,102.366 92.9582,102.699 94.5,103.5C 96.0276,104.309 97.6943,104.976 99.5,105.5C 99.8222,106.858 99.8222,108.525 99.5,110.5C 97.7839,110.371 96.1172,110.038 94.5,109.5C 93.8333,109.5 93.1667,109.5 92.5,109.5C 91.4863,108.326 90.153,107.66 88.5,107.5C 87.8333,107.5 87.1667,107.5 86.5,107.5C 85.8333,106.833 85.1667,106.167 84.5,105.5C 86.1667,105.5 87.8333,105.5 89.5,105.5C 89.5,104.5 89.5,103.5 89.5,102.5 Z"/></g>
<g><path style="opacity:1" fill="#22211b" d="M 124.5,87.5 C 124.902,90.4766 125.902,93.1433 127.5,95.5C 127.5,97.1667 127.5,98.8333 127.5,100.5C 127.331,106.523 126.831,112.523 126,118.5C 123.739,121.031 121.906,120.697 120.5,117.5C 120.388,110.82 120.054,104.153 119.5,97.5C 119.077,95.2188 119.744,93.5521 121.5,92.5C 121.177,96.226 121.511,99.8927 122.5,103.5C 123.466,101.604 123.799,99.604 123.5,97.5C 123.187,93.9581 123.521,90.6248 124.5,87.5 Z"/></g>
<g><path style="opacity:1" fill="#747043" d="M 121.5,92.5 C 122.167,94.1667 122.833,95.8333 123.5,97.5C 123.799,99.604 123.466,101.604 122.5,103.5C 121.511,99.8927 121.177,96.226 121.5,92.5 Z"/></g>
<g><path style="opacity:0.694" fill="#9a986c" d="M 252.5,105.5 C 251.486,106.674 250.153,107.34 248.5,107.5C 249.287,105.896 250.62,105.229 252.5,105.5 Z"/></g>
<g><path style="opacity:1" fill="#141111" d="M 72.5,105.5 C 72.8333,105.5 73.1667,105.5 73.5,105.5C 74.287,107.104 75.6203,107.771 77.5,107.5C 77.8333,107.5 78.1667,107.5 78.5,107.5C 79.7804,108.931 81.4471,109.598 83.5,109.5C 84.7804,110.931 86.4471,111.598 88.5,111.5C 88.8333,111.5 89.1667,111.5 89.5,111.5C 90.7804,112.931 92.4471,113.598 94.5,113.5C 96.5529,113.402 98.2196,114.069 99.5,115.5C 100.552,117.256 102.219,117.923 104.5,117.5C 104.833,117.5 105.167,117.5 105.5,117.5C 106.78,118.931 108.447,119.598 110.5,119.5C 110.833,119.5 111.167,119.5 111.5,119.5C 112.514,120.674 113.847,121.34 115.5,121.5C 115.833,121.5 116.167,121.5 116.5,121.5C 117.78,122.931 119.447,123.598 121.5,123.5C 121.833,123.5 122.167,123.5 122.5,123.5C 123.514,124.674 124.847,125.34 126.5,125.5C 126.833,125.5 127.167,125.5 127.5,125.5C 128.78,126.931 130.447,127.598 132.5,127.5C 132.833,127.5 133.167,127.5 133.5,127.5C 134.287,129.104 135.62,129.771 137.5,129.5C 137.833,129.5 138.167,129.5 138.5,129.5C 139.78,130.931 141.447,131.598 143.5,131.5C 144.78,132.931 146.447,133.598 148.5,133.5C 148.833,133.5 149.167,133.5 149.5,133.5C 150.78,134.931 152.447,135.598 154.5,135.5C 154.833,135.5 155.167,135.5 155.5,135.5C 156.287,137.104 157.62,137.771 159.5,137.5C 159.833,137.5 160.167,137.5 160.5,137.5C 161.974,138.675 163.64,139.675 165.5,140.5C 164.311,141.429 162.978,141.762 161.5,141.5C 129.942,130.206 98.6086,118.539 67.5,106.5C 68.9187,105.549 70.5853,105.216 72.5,105.5 Z"/></g>
<g><path style="opacity:0.043" fill="#e0e5ad" d="M 245.5,106.5 C 245.5,107.167 245.833,107.5 246.5,107.5C 245.791,108.404 244.791,108.737 243.5,108.5C 243.5,108.167 243.5,107.833 243.5,107.5C 243.842,106.662 244.508,106.328 245.5,106.5 Z"/></g>
<g><path style="opacity:0.306" fill="#acac6d" d="M 78.5,107.5 C 80.5529,107.402 82.2196,108.069 83.5,109.5C 81.4471,109.598 79.7804,108.931 78.5,107.5 Z"/></g>
<g><path style="opacity:0.165" fill="#c9c2a0" d="M 88.5,107.5 C 90.153,107.66 91.4863,108.326 92.5,109.5C 90.6203,109.771 89.287,109.104 88.5,107.5 Z"/></g>
<g><path style="opacity:1" fill="#26261e" d="M 135.5,87.5 C 137.767,92.5433 139.433,97.8766 140.5,103.5C 141.489,108.975 141.822,114.642 141.5,120.5C 141.923,122.781 141.256,124.448 139.5,125.5C 138.5,125.5 137.5,125.5 136.5,125.5C 135.635,117.534 135.302,109.534 135.5,101.5C 135.5,96.8333 135.5,92.1667 135.5,87.5 Z"/></g>
<g><path style="opacity:1" fill="#b2b184" d="M 232.5,107.5 C 235.307,108.657 237.974,108.657 240.5,107.5C 241.167,107.5 241.833,107.5 242.5,107.5C 242.5,108.167 242.5,108.833 242.5,109.5C 241.29,109.932 240.29,110.599 239.5,111.5C 238.833,111.5 238.167,111.5 237.5,111.5C 237.611,110.883 237.944,110.383 238.5,110C 236.026,109.963 234.026,109.13 232.5,107.5 Z"/></g>
<g><path style="opacity:0.561" fill="#8a8b59" d="M 83.5,109.5 C 85.5529,109.402 87.2196,110.069 88.5,111.5C 86.4471,111.598 84.7804,110.931 83.5,109.5 Z"/></g>
<g><path style="opacity:0.133" fill="#b0ad84" d="M 94.5,109.5 C 96.1172,110.038 97.7839,110.371 99.5,110.5C 97.5453,111.93 95.8786,111.597 94.5,109.5 Z"/></g>
<g><path style="opacity:1" fill="#221f19" d="M 109.5,106.5 C 109.5,107.5 109.5,108.5 109.5,109.5C 108.566,110.568 108.232,111.901 108.5,113.5C 107.5,113.5 106.5,113.5 105.5,113.5C 104.252,112.666 103.585,111.333 103.5,109.5C 103.852,105.306 104.518,101.306 105.5,97.5C 106.479,96.2347 107.479,94.9014 108.5,93.5C 109.492,97.7828 109.826,102.116 109.5,106.5 Z"/></g>
<g><path style="opacity:0.341" fill="#abac6d" d="M 89.5,111.5 C 91.5529,111.402 93.2196,112.069 94.5,113.5C 92.4471,113.598 90.7804,112.931 89.5,111.5 Z"/></g>
<g><path style="opacity:1" fill="#5e623d" d="M 237.5,111.5 C 234.2,113.642 230.533,114.975 226.5,115.5C 229.8,113.358 233.467,112.025 237.5,111.5 Z"/></g>
<g><path style="opacity:0.22" fill="#eff1c8" d="M 285.5,112.5 C 286.833,113.167 286.833,113.167 285.5,112.5 Z"/></g>
<g><path style="opacity:0.592" fill="#7a7845" d="M 109.5,109.5 C 109.5,111.167 109.5,112.833 109.5,114.5C 107.901,114.768 106.568,114.434 105.5,113.5C 106.5,113.5 107.5,113.5 108.5,113.5C 108.232,111.901 108.566,110.568 109.5,109.5 Z"/></g>
<g><path style="opacity:0.008" fill="#d1d5cb" d="M 40.5,115.5 C 41.8333,116.167 41.8333,116.167 40.5,115.5 Z"/></g>
<g><path style="opacity:0.098" fill="#e0dfb0" d="M 224.5,115.5 C 223.71,116.401 222.71,117.068 221.5,117.5C 221.821,115.952 222.821,115.285 224.5,115.5 Z"/></g>
<g><path style="opacity:1" fill="#504f30" d="M 99.5,115.5 C 101.553,115.402 103.22,116.069 104.5,117.5C 102.219,117.923 100.552,117.256 99.5,115.5 Z"/></g>
<g><path style="opacity:0.518" fill="#938d57" d="M 105.5,117.5 C 107.553,117.402 109.22,118.069 110.5,119.5C 108.447,119.598 106.78,118.931 105.5,117.5 Z"/></g>
<g><path style="opacity:1" fill="#545536" d="M 221.5,117.5 C 218.2,119.642 214.533,120.975 210.5,121.5C 213.8,119.358 217.467,118.025 221.5,117.5 Z"/></g>
<g><path style="opacity:1" fill="#12100e" d="M 237.5,111.5 C 238.167,111.5 238.833,111.5 239.5,111.5C 241.099,111.232 242.432,111.566 243.5,112.5C 231.43,117.413 219.097,121.746 206.5,125.5C 205.957,125.44 205.624,125.107 205.5,124.5C 207.184,123.85 208.517,122.85 209.5,121.5C 209.833,121.5 210.167,121.5 210.5,121.5C 214.533,120.975 218.2,119.642 221.5,117.5C 222.71,117.068 223.71,116.401 224.5,115.5C 225.167,115.5 225.833,115.5 226.5,115.5C 230.533,114.975 234.2,113.642 237.5,111.5 Z"/></g>
<g><path style="opacity:0.341" fill="#a3a16c" d="M 111.5,119.5 C 113.38,119.229 114.713,119.896 115.5,121.5C 113.847,121.34 112.514,120.674 111.5,119.5 Z"/></g>
<g><path style="opacity:0.482" fill="#999059" d="M 116.5,121.5 C 118.553,121.402 120.22,122.069 121.5,123.5C 119.447,123.598 117.78,122.931 116.5,121.5 Z"/></g>
<g><path style="opacity:0.318" fill="#b1b074" d="M 153.5,121.5 C 155.638,123.209 157.971,124.543 160.5,125.5C 157.848,125.59 155.515,124.924 153.5,123.5C 153.5,122.833 153.5,122.167 153.5,121.5 Z"/></g>
<g><path style="opacity:1" fill="#0f0f10" d="M 173.5,87.5 C 173.833,87.5 174.167,87.5 174.5,87.5C 174.5,98.8333 174.5,110.167 174.5,121.5C 175.5,121.5 176.5,121.5 177.5,121.5C 177.5,124.167 177.5,126.833 177.5,129.5C 176.833,129.5 176.167,129.5 175.5,129.5C 173.518,115.873 172.851,101.873 173.5,87.5 Z"/></g>
<g><path style="opacity:0.361" fill="#a1a46e" d="M 122.5,123.5 C 124.38,123.229 125.713,123.896 126.5,125.5C 124.847,125.34 123.514,124.674 122.5,123.5 Z"/></g>
<g><path style="opacity:0.196" fill="#b9bb74" d="M 141.5,120.5 C 142.461,122.265 142.795,124.265 142.5,126.5C 141.209,126.737 140.209,126.404 139.5,125.5C 141.256,124.448 141.923,122.781 141.5,120.5 Z"/></g>
<g><path style="opacity:0.537" fill="#a4a073" d="M 204.5,123.5 C 203.07,124.537 201.403,125.204 199.5,125.5C 200.635,123.787 202.302,123.12 204.5,123.5 Z"/></g>
<g><path style="opacity:0.471" fill="#96925e" d="M 127.5,125.5 C 129.553,125.402 131.22,126.069 132.5,127.5C 130.447,127.598 128.78,126.931 127.5,125.5 Z"/></g>
<g><path style="opacity:0.682" fill="#888f57" d="M 199.5,125.5 C 198.07,126.537 196.403,127.204 194.5,127.5C 195.635,125.787 197.302,125.12 199.5,125.5 Z"/></g>
<g><path style="opacity:0.682" fill="#858757" d="M 133.5,127.5 C 135.38,127.229 136.713,127.896 137.5,129.5C 135.62,129.771 134.287,129.104 133.5,127.5 Z"/></g>
<g><path style="opacity:1" fill="#1a1a15" d="M 153.5,123.5 C 155.515,124.924 157.848,125.59 160.5,125.5C 166.584,124.733 168.584,127.066 166.5,132.5C 163.482,132.296 160.482,131.963 157.5,131.5C 157.167,131.5 156.833,131.5 156.5,131.5C 154.898,129.926 152.898,129.259 150.5,129.5C 150.167,129.5 149.833,129.5 149.5,129.5C 148.766,128.292 148.433,126.959 148.5,125.5C 150.554,125.635 152.221,124.968 153.5,123.5 Z"/></g>
<g><path style="opacity:0.463" fill="#bbb783" d="M 192.5,127.5 C 191.486,128.674 190.153,129.34 188.5,129.5C 189.287,127.896 190.62,127.229 192.5,127.5 Z"/></g>
<g><path style="opacity:0.482" fill="#97975c" d="M 138.5,129.5 C 140.553,129.402 142.22,130.069 143.5,131.5C 141.447,131.598 139.78,130.931 138.5,129.5 Z"/></g>
<g><path style="opacity:0.725" fill="#7d7e5b" d="M 150.5,129.5 C 152.898,129.259 154.898,129.926 156.5,131.5C 154.102,131.741 152.102,131.074 150.5,129.5 Z"/></g>
<g><path style="opacity:0.659" fill="#929266" d="M 188.5,129.5 C 187.07,130.537 185.403,131.204 183.5,131.5C 184.635,129.787 186.302,129.12 188.5,129.5 Z"/></g>
<g><path style="opacity:0.012" fill="#aaa778" d="M 143.5,131.5 C 145.698,131.12 147.365,131.787 148.5,133.5C 146.447,133.598 144.78,132.931 143.5,131.5 Z"/></g>
<g><path style="opacity:0.024" fill="#dadfbd" d="M 285.5,131.5 C 286.833,132.167 286.833,132.167 285.5,131.5 Z"/></g>
<g><path style="opacity:0.263" fill="#a19f6e" d="M 157.5,131.5 C 160.482,131.963 163.482,132.296 166.5,132.5C 163.373,133.815 160.373,133.482 157.5,131.5 Z"/></g>
<g><path style="opacity:1" fill="#12120d" d="M 209.5,121.5 C 208.517,122.85 207.184,123.85 205.5,124.5C 205.624,125.107 205.957,125.44 206.5,125.5C 198.027,128.997 189.36,132.33 180.5,135.5C 179.624,135.631 178.957,135.298 178.5,134.5C 180.184,133.85 181.517,132.85 182.5,131.5C 182.833,131.5 183.167,131.5 183.5,131.5C 185.403,131.204 187.07,130.537 188.5,129.5C 190.153,129.34 191.486,128.674 192.5,127.5C 193.167,127.5 193.833,127.5 194.5,127.5C 196.403,127.204 198.07,126.537 199.5,125.5C 201.403,125.204 203.07,124.537 204.5,123.5C 205.93,122.463 207.597,121.796 209.5,121.5 Z"/></g>
<g><path style="opacity:0.302" fill="#eff5b1" d="M 41.5,133.5 C 42.8333,134.167 42.8333,134.167 41.5,133.5 Z"/></g>
<g><path style="opacity:1" fill="#2d2819" d="M 239.5,132.5 C 242.045,132.151 244.045,132.984 245.5,135C 241.304,138.031 236.637,139.365 231.5,139C 233.751,136.242 236.418,134.075 239.5,132.5 Z"/></g>
<g><path style="opacity:0.471" fill="#999963" d="M 149.5,133.5 C 151.553,133.402 153.22,134.069 154.5,135.5C 152.447,135.598 150.78,134.931 149.5,133.5 Z"/></g>
<g><path style="opacity:0.627" fill="#8d8d57" d="M 155.5,135.5 C 157.38,135.229 158.713,135.896 159.5,137.5C 157.62,137.771 156.287,137.104 155.5,135.5 Z"/></g>
<g><path style="opacity:1" fill="#312f21" d="M 182.5,131.5 C 181.517,132.85 180.184,133.85 178.5,134.5C 178.957,135.298 179.624,135.631 180.5,135.5C 175.691,137.168 171.024,139.335 166.5,142C 164.613,142.78 162.946,142.613 161.5,141.5C 162.978,141.762 164.311,141.429 165.5,140.5C 163.64,139.675 161.974,138.675 160.5,137.5C 162.857,137.663 165.19,137.497 167.5,137C 172.209,134.405 177.209,132.572 182.5,131.5 Z"/></g>
<g><path style="opacity:1" fill="#2a2517" d="M 86.5,134.5 C 91.0926,135.129 94.7593,137.295 97.5,141C 92.3307,141.5 87.664,140.167 83.5,137C 84.5707,136.148 85.5707,135.315 86.5,134.5 Z"/></g>
<g><path style="opacity:0.031" fill="#181805" d="M 150.5,142.5 C 150.897,141.475 151.563,141.308 152.5,142C 151.906,142.464 151.239,142.631 150.5,142.5 Z"/></g>
<g><path style="opacity:1" fill="#65602d" d="M 175.5,141.5 C 176.833,142.167 176.833,142.167 175.5,141.5 Z"/></g>
<g><path style="opacity:1" fill="#312c20" d="M 215.5,137.5 C 216.376,137.369 217.043,137.702 217.5,138.5C 216.26,141.393 214.926,144.227 213.5,147C 212.552,147.483 211.552,147.649 210.5,147.5C 210.719,146.325 210.386,145.325 209.5,144.5C 208.784,146.482 207.617,148.149 206,149.5C 205.308,148.975 204.808,148.308 204.5,147.5C 205.506,143.785 207.673,141.118 211,139.5C 213.108,140.612 214.608,139.946 215.5,137.5 Z"/></g>
<g><path style="opacity:1" fill="#32291c" d="M 224.5,134.5 C 228.102,134.678 228.102,135.678 224.5,137.5C 223.568,139.795 222.735,142.129 222,144.5C 220.951,145.517 219.784,145.684 218.5,145C 219.399,142.808 220.399,140.642 221.5,138.5C 220.738,138.089 219.738,137.923 218.5,138C 220.432,136.541 222.432,135.375 224.5,134.5 Z"/></g>
<g><path style="opacity:1" fill="#312b1b" d="M 109.5,138.5 C 111.533,138.949 113.2,139.949 114.5,141.5C 112.994,142.747 111.494,142.747 110,141.5C 107.612,145.406 108.446,146.406 112.5,144.5C 110.929,149.498 108.429,149.831 105,145.5C 104.504,141.815 106.004,139.482 109.5,138.5 Z"/></g>
<g><path style="opacity:1" fill="#2f291b" d="M 187.5,150.5 C 188.167,149.833 188.833,149.167 189.5,148.5C 190.837,147.685 191.837,146.518 192.5,145C 193.793,144.51 195.127,144.343 196.5,144.5C 196.238,145.978 196.571,147.311 197.5,148.5C 199.211,145.745 201.378,143.411 204,141.5C 204.085,144.361 203.251,147.028 201.5,149.5C 200.224,150.645 198.891,150.645 197.5,149.5C 196.029,151.813 194.196,152.147 192,150.5C 190.715,150.95 189.548,151.617 188.5,152.5C 187.702,152.043 187.369,151.376 187.5,150.5 Z"/></g>
<g><path style="opacity:1" fill="#2d261b" d="M 128.5,144.5 C 131.073,144.148 133.406,144.648 135.5,146C 134.322,146.967 132.989,147.467 131.5,147.5C 132.747,149.042 132.747,150.542 131.5,152C 129.512,152.18 127.512,152.014 125.5,151.5C 125.351,150.448 125.517,149.448 126,148.5C 126.893,149.711 127.726,149.711 128.5,148.5C 127.193,147.135 127.193,145.802 128.5,144.5 Z"/></g>
<g><path style="opacity:1" fill="#2b221a" d="M 116.5,141.5 C 117.5,141.5 118.5,141.5 119.5,141.5C 119.528,143.582 118.861,145.416 117.5,147C 118.424,148.489 119.424,148.656 120.5,147.5C 121.248,145.668 122.248,144.001 123.5,142.5C 124.5,142.833 125.167,143.5 125.5,144.5C 123.464,151.26 119.797,152.26 114.5,147.5C 115.372,145.55 116.039,143.55 116.5,141.5 Z"/></g>
<g><path style="opacity:0.741" fill="#342d20" d="M 144.5,148.5 C 147.445,147.532 150.445,147.366 153.5,148C 154.935,150.267 154.602,152.267 152.5,154C 146.813,156.037 144.146,154.204 144.5,148.5 Z M 149.5,149.5 C 150.688,151.496 150.021,152.329 147.5,152C 148.381,151.292 149.047,150.458 149.5,149.5 Z"/></g>
<g><path style="opacity:1" fill="#acab73" d="M 187.5,148.5 C 188.167,148.5 188.833,148.5 189.5,148.5C 188.833,149.167 188.167,149.833 187.5,150.5C 186.833,150.5 186.167,150.5 185.5,150.5C 185.833,149.5 186.5,148.833 187.5,148.5 Z"/></g>
<g><path style="opacity:0.578" fill="#2d251a" d="M 144.5,148.5 C 143.325,148.281 142.325,148.614 141.5,149.5C 140.83,153.077 139.164,153.91 136.5,152C 138.801,149.997 138.801,148.163 136.5,146.5C 136.833,146.167 137.167,145.833 137.5,145.5C 140.345,145.766 142.678,146.766 144.5,148.5 Z"/></g>
<g><path style="opacity:1" fill="#2e291c" d="M 166.5,154.5 C 165.833,151.833 165.167,151.833 164.5,154.5C 161.857,154.858 159.19,155.191 156.5,155.5C 156.167,155 155.833,154.5 155.5,154C 156.708,148.499 159.541,147.333 164,150.5C 169.892,146.9 171.725,148.233 169.5,154.5C 168.5,154.5 167.5,154.5 166.5,154.5 Z"/></g>
<g><path style="opacity:1" fill="#37301f" d="M 187.5,148.5 C 186.5,148.833 185.833,149.5 185.5,150.5C 183.145,151.094 180.978,152.094 179,153.5C 178.5,153.167 178,152.833 177.5,152.5C 178.833,151.167 178.833,149.833 177.5,148.5C 179.291,147.236 181.291,146.569 183.5,146.5C 185.355,146.34 186.688,147.007 187.5,148.5 Z"/></g>
<g><path style="opacity:1" fill="#a8a588" d="M 166.5,154.5 C 165.833,154.5 165.167,154.5 164.5,154.5C 165.167,151.833 165.833,151.833 166.5,154.5 Z"/></g>
</svg>
